<svg width="23" height="24" viewBox="0 0 23 24" fill="currentColor" xmlns="http://www.w3.org/2000/svg">
  <path
      d="M21.161 21.0997C21.1631 21.0997 21.1624 21.0997 21.161 21.0997V21.0997ZM3.0957 12.6059H4.26807L3.67763 11.2022L3.0957 12.6059V12.6059ZM17.3564 8.79422H17.8518V14.5986H16.3728V11.6001L13.3972 14.6153H12.9601V8.79422H14.4404V11.6255L17.3564 8.79422ZM9.01858 11.0561C9.18251 11.0539 9.31593 11.0248 9.41812 10.9695C9.54799 10.9033 9.64521 10.7768 9.70979 10.5913C9.77437 10.4051 9.84676 10.1382 9.92766 9.78914C9.97095 9.61168 10.0398 9.44732 10.1342 9.29459C10.2308 9.14025 10.3626 9.01223 10.5181 8.9215C10.6806 8.82477 10.8793 8.76077 11.1171 8.73022C11.3541 8.7004 11.6394 8.72077 11.9736 8.7935V9.81459C11.8225 9.79937 11.67 9.82208 11.5294 9.88077C11.4109 9.93605 11.3292 10.0517 11.2867 10.2299C11.2089 10.5375 11.1088 10.8387 10.9872 11.131C10.8899 11.3662 10.7561 11.5838 10.5912 11.7753C10.8658 12.2073 11.1355 12.6401 11.4002 13.0757C11.6642 13.5106 11.9332 13.9433 12.2078 14.3753V14.5993H10.5351L9.29748 12.3564C9.18458 12.3692 9.07113 12.3762 8.95755 12.3775C8.81774 12.3797 8.69568 12.3819 8.5942 12.3819V14.5993H7.11454V8.79495H8.59349V11.0611C8.712 11.0604 8.85393 11.059 9.01858 11.0561V11.0561ZM7.19757 1.98546C2.41371 4.82184 -0.0857292 9.79714 1.06464 13.707L3.31499 8.79422H4.05588L6.59649 14.3913V14.5986H5.06858L4.73645 13.8757H2.61881L2.29449 14.5986H1.40031C1.46915 14.747 1.54366 14.8939 1.62457 15.0379L1.64869 15.0808C4.34897 19.9666 11.7671 23.3005 16.3288 23.9652C16.3281 23.9659 16.3281 23.9674 16.3288 23.9652C17.328 24.09 18.3396 23.8773 19.2101 23.3594C20.0824 22.8431 20.7672 22.05 21.161 21.0997C21.1603 21.0997 21.1588 21.099 21.161 21.0997C22.2368 18.3572 22.999 14.1033 22.7343 10.1135H21.4342V14.5993H20.0021V10.1135H18.6111V8.79495H22.6066C22.3617 6.88221 21.8571 5.08075 21.0105 3.59929L20.9871 3.55565C19.6749 1.22037 17.0555 0 14.0473 0C11.8523 0 9.45147 0.648003 7.19757 1.98546Z"
      fill="currentColor"></path>
</svg>