<svg width="50" height="50" viewBox="0 0 50 50" fill="currentColor" xmlns="http://www.w3.org/2000/svg">
  <path
      d="M33.5212 27.2724L33.5216 27.2725L33.5236 27.2668L36.2526 19.6046C36.3689 19.3684 36.2493 19.137 36.1369 19.0246L36.1361 19.0239C36.0838 18.9716 36.0027 18.8905 35.9074 18.8224C35.8127 18.7548 35.6972 18.695 35.5765 18.695H17.2425C17.08 17.889 16.9183 17.2706 16.8061 16.8417C16.775 16.723 16.7478 16.6188 16.7254 16.5292C16.5145 15.423 16.1702 14.6751 15.6196 14.2051C15.0684 13.7345 14.3192 13.55 13.3165 13.55H11.4265C11.2527 13.55 11.0832 13.6364 10.958 13.7615C10.8329 13.8867 10.7465 14.0562 10.7465 14.23C10.7465 14.4038 10.8329 14.5733 10.958 14.6985C11.0832 14.8236 11.2527 14.91 11.4265 14.91H13.3165C14.0006 14.91 14.4289 14.9639 14.7282 15.2134C15.0282 15.4633 15.2098 15.9189 15.3674 16.7592L15.3673 16.7592L15.3678 16.7614C15.5777 17.6532 16.155 20.3824 16.7195 23.0603C16.7857 23.3746 16.8518 23.6882 16.9171 23.998C17.4074 26.3252 17.8529 28.4398 17.9924 29.0447C18.0982 29.6782 18.3105 30.3714 18.8054 30.9064C19.3023 31.4436 20.078 31.815 21.2965 31.815H32.8465C33.0203 31.815 33.1898 31.7286 33.315 31.6035C33.4401 31.4783 33.5265 31.3088 33.5265 31.135C33.5265 30.9612 33.4401 30.7917 33.315 30.6665C33.1898 30.5414 33.0203 30.455 32.8465 30.455H21.2965C20.5682 30.455 20.1374 30.2989 19.8487 30.0103C19.5584 29.72 19.4036 29.2883 19.2465 28.7132C19.2454 28.6025 19.2183 28.4431 19.1798 28.2633C19.1441 28.0968 19.0977 27.909 19.0505 27.72H32.8465C33.187 27.72 33.4111 27.4925 33.5212 27.2724ZM32.2864 26.36H18.8161C18.4018 24.5952 17.8874 22.1276 17.4725 20.055H34.5603L32.2864 26.36ZM22.4515 32.765C21.1624 32.765 20.1965 33.8389 20.1965 35.02C20.1965 36.2026 21.2689 37.275 22.4515 37.275C23.6341 37.275 24.7065 36.2026 24.7065 35.02C24.7065 33.8389 23.7407 32.765 22.4515 32.765ZM22.4515 36.02C21.9541 36.02 21.5565 35.6224 21.5565 35.125C21.5565 34.6276 21.9541 34.23 22.4515 34.23C22.9489 34.23 23.3465 34.6276 23.3465 35.125C23.3465 35.6224 22.9489 36.02 22.4515 36.02ZM30.2215 32.765C28.9324 32.765 27.9665 33.8389 27.9665 35.02C27.9665 36.2026 29.0389 37.275 30.2215 37.275C31.4041 37.275 32.4765 36.2026 32.4765 35.02C32.4765 33.8389 31.5107 32.765 30.2215 32.765ZM30.2215 36.02C29.7241 36.02 29.3265 35.6224 29.3265 35.125C29.3265 34.6276 29.7241 34.23 30.2215 34.23C30.7189 34.23 31.1165 34.6276 31.1165 35.125C31.1165 35.6224 30.7189 36.02 30.2215 36.02Z"
      fill="currentColor" stroke="black" stroke-width="0.1"></path>
</svg>