<svg width="32" height="32" viewBox="0 0 32 32" fill="currentColor" xmlns="http://www.w3.org/2000/svg">
  <path
      d="M16 32C24.8363 32 32 24.8363 32 16C32 7.16373 24.8363 0 16 0C7.16373 0 0 7.16373 0 16C0 24.8363 7.16373 32 16 32Z"
      fill="black"></path>
  <path
      d="M10.5299 15.8161H7.67999V11.0815C7.67999 9.1969 9.1969 7.67999 11.0815 7.67999H15.8161V10.5299C15.8161 13.7016 13.7016 15.8161 10.5299 15.8161ZM10.5299 16.1379H7.67999V20.8725C7.67999 22.7571 9.1969 24.274 11.0815 24.274H15.8161V21.47C15.8161 18.2524 13.7016 16.1379 10.5299 16.1379ZM20.9184 7.67999H16.1379V10.5299C16.1379 13.7016 18.2524 15.8161 21.4241 15.8161H24.274V11.0815C24.32 9.1969 22.8031 7.67999 20.9184 7.67999ZM16.1379 21.47V24.32H20.8725C22.7571 24.32 24.274 22.8031 24.274 20.9184V16.1379H21.47C18.2524 16.1379 16.1379 18.2524 16.1379 21.47Z"
      fill="white"></path>
</svg>