<svg width="17" height="11" viewBox="0 0 17 11" fill="none" xmlns="http://www.w3.org/2000/svg">
<path d="M8.54073 10.4449C4.31315 10.4449 1.0036 6.34266 0.864724 6.16784L0.5 5.71042L0.864724 5.25227C1.0036 5.07746 4.31315 0.975952 8.54073 0.975952C12.7668 0.975952 16.0779 5.07746 16.2153 5.25227L16.58 5.71042L16.2153 6.16857C16.0771 6.34266 12.7668 10.4449 8.54073 10.4449ZM2.4084 5.70969C3.34177 6.70539 5.7757 8.97866 8.54073 8.97866C11.3138 8.97866 13.7404 6.70757 14.6731 5.71188C13.7397 4.71618 11.3043 2.44364 8.54073 2.44364C5.76766 2.44291 3.33958 4.71327 2.4084 5.70969Z" fill="#868686"/>
<path d="M10.1919 5.61844C9.73943 5.61844 9.37251 5.24916 9.37251 4.79319C9.37251 4.33795 9.73943 3.96866 10.1919 3.96866C10.265 3.96866 10.3315 3.9927 10.3994 4.01091C9.94408 3.48138 9.27969 3.13904 8.52904 3.13904C7.15713 3.13904 6.04688 4.2571 6.04688 5.63665C6.04688 7.01621 7.15786 8.13427 8.52904 8.13427C9.8995 8.13427 11.0112 7.01621 11.0112 5.63665C11.0112 5.45164 10.9871 5.27246 10.9498 5.09838C10.8299 5.40211 10.5368 5.61844 10.1919 5.61844Z" fill="#868686"/>
</svg>
