<svg width="24" height="24" viewBox="0 0 24 24" fill="none" xmlns="http://www.w3.org/2000/svg">
  <path
      d="M19.5569 13.7805L21.6702 7.84693C21.7515 7.68436 21.6702 7.5218 21.5889 7.44052C21.5076 7.35924 21.3451 7.19667 21.1825 7.19667H6.95819C6.79562 6.38386 6.63306 5.81488 6.55178 5.48976C6.22665 3.78284 5.49512 3.21387 3.95076 3.21387H2.48769C2.24385 3.21387 2 3.45771 2 3.70156C2 3.9454 2.24385 4.18925 2.48769 4.18925H3.95076C5.00742 4.18925 5.33255 4.35181 5.5764 5.65232C5.90152 7.03411 7.3646 14.1056 7.60844 15.1623C7.771 16.1377 8.25869 17.2756 10.1282 17.2756H19.0692C19.313 17.2756 19.5569 17.0318 19.5569 16.7879C19.5569 16.5441 19.313 16.3002 19.0692 16.3002H10.1282C8.99023 16.3002 8.74639 15.8125 8.50254 14.9184C8.50254 14.7559 8.42126 14.4307 8.33998 14.1056H19.0692C19.313 14.1056 19.4756 13.9431 19.5569 13.7805ZM8.17741 13.1302C7.85229 11.7485 7.44588 9.79769 7.12075 8.17205H20.451L18.6628 13.1302H8.17741ZM11.0223 18.0884C10.0469 18.0884 9.31536 18.9012 9.31536 19.7953C9.31536 20.6894 10.1282 21.5023 11.0223 21.5023C11.9164 21.5023 12.7292 20.6894 12.7292 19.7953C12.7292 18.9012 11.9977 18.0884 11.0223 18.0884ZM11.0223 20.6082C10.6159 20.6082 10.2907 20.283 10.2907 19.8766C10.2907 19.4702 10.6159 19.1451 11.0223 19.1451C11.4287 19.1451 11.7538 19.4702 11.7538 19.8766C11.7538 20.283 11.4287 20.6082 11.0223 20.6082ZM17.0371 18.0884C16.0617 18.0884 15.3302 18.9012 15.3302 19.7953C15.3302 20.6894 16.143 21.5023 17.0371 21.5023C17.9312 21.5023 18.744 20.6894 18.744 19.7953C18.744 18.9012 18.0125 18.0884 17.0371 18.0884ZM17.0371 20.6082C16.6307 20.6082 16.3056 20.283 16.3056 19.8766C16.3056 19.4702 16.6307 19.1451 17.0371 19.1451C17.4435 19.1451 17.7687 19.4702 17.7687 19.8766C17.7687 20.283 17.4435 20.6082 17.0371 20.6082Z"
      fill="black"></path>
  <path fill-rule="evenodd" clip-rule="evenodd"
        d="M19.6463 13.8252C19.5549 14.0082 19.364 14.2056 19.0692 14.2056H8.468C8.49787 14.3261 8.52653 14.4447 8.54954 14.5521C8.57845 14.687 8.60032 14.8124 8.6024 14.9044C8.72354 15.3466 8.84008 15.6632 9.05081 15.8739C9.25811 16.0812 9.57254 16.2003 10.1282 16.2003H19.0692C19.2236 16.2003 19.3697 16.2765 19.4752 16.3819C19.5807 16.4874 19.6569 16.6335 19.6569 16.7879C19.6569 16.9424 19.5807 17.0885 19.4752 17.1939C19.3697 17.2994 19.2236 17.3756 19.0692 17.3756H10.1282C9.17147 17.3756 8.55334 17.0835 8.15483 16.6526C7.76031 16.2261 7.59309 15.6765 7.51034 15.1818C7.40171 14.7105 7.05708 13.0748 6.67809 11.276C6.62754 11.0361 6.57637 10.7932 6.52507 10.5499C6.08801 8.47634 5.6413 6.36467 5.47908 5.67525L5.47803 5.67079C5.35599 5.01991 5.21805 4.68799 5.00439 4.50994C4.79175 4.33274 4.48238 4.28927 3.95079 4.28927H2.48772C2.33327 4.28927 2.18719 4.21306 2.08172 4.10758C1.97624 4.0021 1.90002 3.85603 1.90002 3.70158C1.90002 3.54714 1.97624 3.40106 2.08172 3.29558C2.18719 3.19011 2.33327 3.11389 2.48772 3.11389H3.95079C4.73334 3.11389 5.33065 3.25771 5.77343 3.63569C6.21487 4.01252 6.48516 4.60724 6.6495 5.46826C6.66662 5.53665 6.68745 5.61628 6.7112 5.70706C6.79574 6.03023 6.91726 6.49475 7.04003 7.0967H21.1825C21.2952 7.0967 21.3975 7.15188 21.4743 7.20677C21.5522 7.26239 21.618 7.32814 21.6583 7.3685L21.6596 7.36983C21.7558 7.46596 21.8661 7.67109 21.7625 7.88588L19.6463 13.8252ZM21.6702 7.84695L19.5569 13.7805C19.4756 13.9431 19.313 14.1056 19.0692 14.1056H8.34C8.34835 14.139 8.3567 14.1724 8.36496 14.2056C8.43712 14.4958 8.50257 14.7726 8.50257 14.9185C8.74641 15.8126 8.99026 16.3003 10.1282 16.3003H19.0692C19.313 16.3003 19.5569 16.5441 19.5569 16.7879C19.5569 17.0318 19.313 17.2756 19.0692 17.2756H10.1282C8.25872 17.2756 7.77103 16.1377 7.60847 15.1623C7.50085 14.696 7.15576 13.0581 6.77582 11.2548C6.29487 8.97211 5.75806 6.42431 5.57642 5.65234C5.33258 4.35184 5.00745 4.18927 3.95079 4.18927H2.48772C2.24387 4.18927 2.00002 3.94543 2.00002 3.70158C2.00002 3.45774 2.24387 3.21389 2.48772 3.21389H3.95079C5.49514 3.21389 6.22668 3.78286 6.5518 5.48978C6.5693 5.55976 6.59056 5.64105 6.61478 5.73363C6.70307 6.07115 6.83064 6.55884 6.95821 7.1967H21.1825C21.3451 7.1967 21.5076 7.35926 21.5889 7.44054C21.6702 7.52182 21.7515 7.68439 21.6702 7.84695ZM8.25669 13.0303H18.5925L20.3086 8.27208H7.24278C7.55761 9.84237 7.94307 11.6895 8.25669 13.0303ZM7.1408 8.27208C7.46247 9.87716 7.85895 11.7767 8.17744 13.1303H18.6628L20.451 8.17208H7.12078C7.12742 8.20528 7.13409 8.23861 7.1408 8.27208ZM9.21538 19.7954C9.21538 18.8492 9.98863 17.9885 11.0223 17.9885C12.056 17.9885 12.8292 18.8492 12.8292 19.7954C12.8292 20.7447 11.9716 21.6023 11.0223 21.6023C10.073 21.6023 9.21538 20.7447 9.21538 19.7954ZM10.3908 19.8766C10.3908 20.2278 10.6711 20.5082 11.0223 20.5082C11.3735 20.5082 11.6538 20.2278 11.6538 19.8766C11.6538 19.5255 11.3735 19.2451 11.0223 19.2451C10.6711 19.2451 10.3908 19.5255 10.3908 19.8766ZM15.2302 19.7954C15.2302 18.8492 16.0035 17.9885 17.0372 17.9885C18.0708 17.9885 18.8441 18.8492 18.8441 19.7954C18.8441 20.7447 17.9865 21.6023 17.0372 21.6023C16.0878 21.6023 15.2302 20.7447 15.2302 19.7954ZM16.4056 19.8766C16.4056 20.2278 16.686 20.5082 17.0372 20.5082C17.3883 20.5082 17.6687 20.2278 17.6687 19.8766C17.6687 19.5255 17.3883 19.2451 17.0372 19.2451C16.686 19.2451 16.4056 19.5255 16.4056 19.8766ZM9.31538 19.7954C9.31538 18.9013 10.0469 18.0885 11.0223 18.0885C11.9977 18.0885 12.7292 18.9013 12.7292 19.7954C12.7292 20.6895 11.9164 21.5023 11.0223 21.5023C10.1282 21.5023 9.31538 20.6895 9.31538 19.7954ZM10.2908 19.8766C10.2908 20.2831 10.6159 20.6082 11.0223 20.6082C11.4287 20.6082 11.7538 20.2831 11.7538 19.8766C11.7538 19.4702 11.4287 19.1451 11.0223 19.1451C10.6159 19.1451 10.2908 19.4702 10.2908 19.8766ZM15.3302 19.7954C15.3302 18.9013 16.0618 18.0885 17.0372 18.0885C18.0125 18.0885 18.7441 18.9013 18.7441 19.7954C18.7441 20.6895 17.9312 21.5023 17.0372 21.5023C16.1431 21.5023 15.3302 20.6895 15.3302 19.7954ZM16.3056 19.8766C16.3056 20.2831 16.6307 20.6082 17.0372 20.6082C17.4436 20.6082 17.7687 20.2831 17.7687 19.8766C17.7687 19.4702 17.4436 19.1451 17.0372 19.1451C16.6307 19.1451 16.3056 19.4702 16.3056 19.8766Z"
        fill="black"></path>
</svg>