<svg viewBox="0 0 258 36" fill="none" xmlns="http://www.w3.org/2000/svg">
  <g clip-path="url(#clip0_159_332)">
    <path
        d="M15.2466 12.1369C15.2466 14.0864 13.6754 15.6576 11.726 15.6576C9.77647 15.6576 8.20526 14.0864 8.20526 12.1369C8.20526 10.1874 9.77647 8.61619 11.726 8.61619C13.6754 8.61619 15.2466 10.1874 15.2466 12.1369ZM23.4519 8.61619C21.5024 8.61619 19.9312 10.1874 19.9312 12.1369C19.9312 14.0864 21.5024 15.6576 23.4519 15.6576C25.4014 15.6576 26.9726 14.0864 26.9726 12.1369C26.9726 10.1874 25.3723 8.61619 23.4519 8.61619ZM11.726 20.3421C9.77647 20.3421 8.20526 21.9134 8.20526 23.8628C8.20526 25.8123 9.77647 27.3835 11.726 27.3835C13.6754 27.3835 15.2466 25.8123 15.2466 23.8628C15.2466 21.9134 13.6754 20.3421 11.726 20.3421ZM23.4519 20.3421C21.5024 20.3421 19.9312 21.9134 19.9312 23.8628C19.9312 25.8123 21.5024 27.3835 23.4519 27.3835C25.4014 27.3835 26.9726 25.8123 26.9726 23.8628C26.9726 21.9134 25.3723 20.3421 23.4519 20.3421ZM0 4.30988V31.6607C0 33.8139 1.7458 35.5597 3.89895 35.5597H31.2498L27.3509 31.6607L3.89895 31.6316V4.28079H31.2498V35.5306C33.403 35.5306 35.1488 33.7848 35.1488 31.6316V4.28079C35.1488 2.12764 33.403 0.381836 31.2498 0.381836H3.89895C1.7458 0.410933 0 2.15673 0 4.30988Z"
        fill="#F01E00"/>
    <path
        d="M55.8948 16.1815L48.7661 10.3622H45.3618V25.7252H48.9989V14.9304L55.953 20.6042L62.878 14.8722V25.7252H66.5442V10.3622H63.1108L55.8948 16.1815Z"
        fill="black"/>
    <path
        d="M73.0036 20.9243V10.3622H69.3374V25.7252H73.3818L83.9439 15.134V25.7252H87.6101V10.3622H83.5657L73.0036 20.9243Z"
        fill="black"/>
    <path
        d="M100.994 10.3622H90.4033V31.5154H94.0695V25.7252H101.024C107.832 25.7252 108.705 24.8523 108.705 18.0437C108.676 11.2351 107.803 10.3622 100.994 10.3622ZM100.994 22.059H94.0404V14.0284H100.994C102.362 14.0284 104.428 14.0284 104.806 14.232C105.01 14.6103 105.01 16.6762 105.01 18.0437C105.01 19.4112 105.01 21.4771 104.806 21.8554C104.428 22.059 102.362 22.059 100.994 22.059Z"
        fill="black"/>
    <path
        d="M135.27 10.3622H130.586L125.96 16.1815H119.704V10.3622H116.038V25.7252H119.704V19.8186H125.96L130.673 25.7252H135.358L129.189 17.9855L135.27 10.3622Z"
        fill="black"/>
    <path
        d="M218.603 10.3622H213.918L209.292 16.1815H203.036V10.3622H199.37V25.7252H203.036V19.8186H209.292L214.006 25.7252H218.69L212.522 17.9855L218.603 10.3622Z"
        fill="black"/>
    <path
        d="M181.883 20.9243V10.3622H178.217V25.7252H182.261L192.853 15.134V25.7252H196.49V10.3622H192.445L181.883 20.9243Z"
        fill="black"/>
    <path
        d="M231.144 10.3622H225.877C220.465 10.3622 219.68 11.1769 219.68 16.5598V19.4694C219.68 24.8814 220.494 25.667 225.877 25.667H231.144C236.556 25.667 237.341 24.8523 237.341 19.4694V16.5598C237.341 11.1769 236.527 10.3622 231.144 10.3622ZM233.704 16.5889V19.4985C233.704 20.3423 233.704 21.4771 233.617 21.9717C233.122 22.0299 232.046 22.0299 231.144 22.0299H225.877C224.975 22.0299 223.899 22.0299 223.404 21.9717C223.346 21.4771 223.346 20.4005 223.346 19.4985V16.5889C223.346 15.6869 223.346 14.6103 223.404 14.1156C223.899 14.0575 224.975 14.0575 225.877 14.0575H231.144C232.046 14.0575 233.122 14.0575 233.617 14.1156C233.704 14.5812 233.704 15.6869 233.704 16.5889Z"
        fill="black"/>
    <path
        d="M168.848 10.3621H161.195C161.225 8.90727 161.312 8.49991 161.37 8.38353C161.748 8.17985 163.814 8.17985 165.182 8.17985H173.707L174.405 4.51367H165.182C162.01 4.51367 160.206 4.65916 159.071 5.53205C157.849 6.46315 157.587 8.15075 157.529 10.7113V11.235C157.529 11.526 157.529 11.846 157.529 12.1952V18.8001C157.529 21.8553 157.529 23.3974 158.693 24.5613C159.857 25.7251 161.399 25.7251 164.454 25.7251H168.848C174.958 25.7251 175.802 24.8813 175.802 18.771V17.2871C175.802 11.2059 174.958 10.3621 168.848 10.3621ZM172.136 17.2871V18.771C172.136 19.8767 172.136 21.5061 172.019 21.9426C171.583 22.059 169.954 22.059 168.848 22.059H164.454C163.349 22.059 161.719 22.059 161.283 21.9426C161.166 21.5061 161.166 19.8476 161.166 18.9165V13.9992H168.848C169.954 13.9992 171.583 13.9992 172.019 14.1156C172.136 14.5811 172.136 16.2105 172.136 17.2871Z"
        fill="black"/>
    <path
        d="M151.361 10.3622V22.0299H143.679C142.574 22.0299 140.944 22.0299 140.508 21.9136C140.391 21.4771 140.391 19.8477 140.391 18.742V10.3622H136.754V18.742C136.754 24.8523 137.598 25.6961 143.708 25.6961H151.361C151.332 27.1509 151.245 27.5583 151.186 27.6747C150.808 27.8784 148.742 27.8784 147.375 27.8784H138.587L139.286 31.5445H147.375C153.31 31.5445 154.823 30.9917 155.027 25.6961H155.056V24.2413V24.0958C155.056 24.0376 155.056 23.9503 155.056 23.8921V10.4204H151.361V10.3622Z"
        fill="black"/>
    <path
        d="M256.167 16.2106C255.818 15.9487 255.41 15.7741 254.945 15.6577C255.003 15.2504 255.032 14.8139 255.032 14.3484C255.032 12.8062 254.683 11.7297 253.985 11.0604C253.083 10.2166 251.802 10.2748 250.871 10.333C250.668 10.333 250.464 10.3621 250.289 10.3621H239.727V25.6961H252.501C252.617 25.6961 252.733 25.6961 252.85 25.6961C252.966 25.6961 253.112 25.6961 253.228 25.6961C254.392 25.6961 255.73 25.6088 256.72 24.6195C257.564 23.7757 258 22.4081 258 20.4878C258 19.0329 257.796 17.3453 256.167 16.2106ZM254.363 20.5169C254.363 21.3607 254.363 21.8844 254.217 22.0299C254.043 22.1754 253.432 22.1754 252.53 22.1754H243.423V18.9456H252.559C253.432 18.9456 254.043 18.9456 254.188 19.0911C254.363 19.2366 254.363 19.7603 254.363 20.5169ZM251.308 15.6577C251.22 15.745 250.726 15.745 250.289 15.745H243.364V13.8828H250.289H250.406C250.813 13.8828 251.22 13.8828 251.308 13.941C251.366 14.0283 251.366 14.4066 251.366 14.7848C251.395 15.134 251.395 15.5995 251.308 15.6577Z"
        fill="black"/>
  </g>
  <defs>
    <clipPath id="clip0_159_332">
      <rect width="258" height="35.1779" fill="white" transform="translate(0 0.411133)"/>
    </clipPath>
  </defs>
</svg>