<svg width="24" height="25" viewBox="0 0 24 25" fill="currentColor" xmlns="http://www.w3.org/2000/svg">
  <path
      d="M23.555 21.7L20.655 18.8C19.455 17.6 18.255 16.4 17.055 15.2C20.155 11 19.255 5.1 15.255 2C13.555 0.7 11.455 0 9.35496 0C7.05496 0.1 4.55496 1 2.75496 2.9C-0.745039 6.5 -0.945039 12 2.35496 15.8C4.05496 17.9 6.75496 19.1 9.45496 19.1C11.355 19.1 13.355 18.5 15.155 17.2L19.655 21.7C20.355 22.4 20.955 23 21.655 23.7C21.955 24 22.255 24.1 22.655 24.1C23.055 24.1 23.355 23.9 23.655 23.6C24.055 23.1 24.055 22.3 23.555 21.7ZM9.45496 17.8C7.05496 17.8 4.75496 16.8 3.25496 15C0.454961 11.7 0.654961 6.9 3.65496 3.9C5.15496 2.3 7.25496 1.5 9.45496 1.5C11.255 1.5 13.055 2.1 14.455 3.2C16.155 4.5 17.255 6.6 17.555 8.7C17.855 10.9 17.155 13.1 15.755 14.8L15.255 15.4L14.555 15.9C13.155 17.2 11.355 17.8 9.45496 17.8Z"
      fill="currentColor"></path>
</svg>