<svg width="11" height="15" viewBox="0 0 11 15" fill="none" xmlns="http://www.w3.org/2000/svg">
<path d="M5.525 14.568C5.31754 14.568 5.12085 14.4786 4.98445 14.3234C4.52503 13.799 0.5 9.11261 0.5 5.98356C0.5 3.5656 2.51861 0.975952 5.52428 0.975952C8.53067 0.975952 10.55 3.5656 10.55 5.98356C10.55 9.11261 6.52498 13.799 6.06555 14.3234C5.92915 14.4786 5.73246 14.568 5.525 14.568ZM5.52428 2.4067C3.37789 2.4067 1.93571 4.25594 1.93571 5.98356C1.93571 7.8929 4.18045 11.072 5.525 12.736C6.86955 11.0706 9.11429 7.89075 9.11429 5.98356C9.11429 4.25594 7.67139 2.4067 5.52428 2.4067Z" fill="#868686"/>
<path d="M5.51775 7.41459C6.31067 7.41459 6.95346 6.77403 6.95346 5.98385C6.95346 5.19367 6.31067 4.5531 5.51775 4.5531C4.72482 4.5531 4.08203 5.19367 4.08203 5.98385C4.08203 6.77403 4.72482 7.41459 5.51775 7.41459Z" fill="#868686"/>
</svg>
