<svg width="23" height="14" viewBox="0 0 23 14" fill="none" xmlns="http://www.w3.org/2000/svg">
  <path d="M14.7255 1.46948H8.73746V12.2754H14.7255V1.46948Z" fill="#FF5F00"></path>
  <path
      d="M9.11767 6.87253C9.11767 4.67699 10.1442 2.72963 11.722 1.46957C10.5624 0.553172 9.09866 -0.000488281 7.50183 -0.000488281C3.71889 -0.000488281 0.65831 3.07328 0.65831 6.87253C0.65831 10.6718 3.71889 13.7456 7.50183 13.7456C9.09866 13.7456 10.5624 13.1919 11.722 12.2755C10.1442 11.0154 9.11767 9.06808 9.11767 6.87253Z"
      fill="#EB001B"></path>
  <path
      d="M22.8046 6.87253C22.8046 10.6718 19.744 13.7456 15.9611 13.7456C14.3643 13.7456 12.9005 13.1919 11.7409 12.2755C13.3187 11.0154 14.3453 9.06808 14.3453 6.87253C14.3453 4.67699 13.3187 2.72963 11.7219 1.46957C12.9005 0.553172 14.3643 -0.000488281 15.9611 -0.000488281C19.744 -0.000488281 22.8046 3.07328 22.8046 6.87253Z"
      fill="#F79E1B"></path>
</svg>