<svg width="24" height="24" viewBox="0 0 24 24" fill="none" xmlns="http://www.w3.org/2000/svg">
<path fill-rule="evenodd" clip-rule="evenodd" d="M10.6902 5.68746L10.6842 5.68143C9.74284 4.72357 8.50124 4.2 7.17437 4.2C5.8568 4.2 4.60513 4.72435 3.66451 5.68143C1.71183 7.66827 1.71183 10.9071 3.66451 12.8939L11.9138 21.2875L20.1532 12.8944C22.1059 10.9076 22.1063 7.66827 20.1537 5.68143C19.2123 4.72357 17.9707 4.2 16.6438 4.2C15.3262 4.2 14.0746 4.72435 13.134 5.68144L11.9263 6.91026L10.6902 5.68746ZM11.9143 23L2.80865 13.7351C0.397115 11.2813 0.397115 7.29402 2.80865 4.8403C3.97284 3.65574 5.53203 3 7.17437 3C8.72866 3 10.191 3.57995 11.328 4.63428C11.4 4.70106 11.4707 4.76974 11.5401 4.8403L11.9143 5.21047L12.2781 4.8403C12.3175 4.80018 12.3574 4.76066 12.3977 4.72176C13.548 3.61207 15.0571 3 16.6438 3C18.2965 3 19.8453 3.65574 21.0095 4.8403C23.4211 7.29402 23.4211 11.2813 21.0095 13.7351L11.9143 23Z" fill="black"/>
</svg>
