<svg width="24" height="24" viewBox="0 0 24 24" fill="none" xmlns="http://www.w3.org/2000/svg">
<g id="login">
<path id="Rectangle 395 (Stroke)" fill-rule="evenodd" clip-rule="evenodd" d="M18 3.2H6C4.4536 3.2 3.2 4.4536 3.2 6V18C3.2 19.5464 4.4536 20.8 6 20.8H18C19.5464 20.8 20.8 19.5464 20.8 18V6C20.8 4.4536 19.5464 3.2 18 3.2ZM6 2C3.79086 2 2 3.79086 2 6V18C2 20.2091 3.79086 22 6 22H18C20.2091 22 22 20.2091 22 18V6C22 3.79086 20.2091 2 18 2H6Z" fill="black"/>
<g id="Group 337524">
<g id="Ellipse 64">
<path d="M17 9.5C17 10.3284 16.3284 11 15.5 11C14.6716 11 14 10.3284 14 9.5C14 8.67157 14.6716 8 15.5 8C16.3284 8 17 8.67157 17 9.5Z" fill="black"/>
<path d="M17 9.5C17 10.3284 16.3284 11 15.5 11C14.6716 11 14 10.3284 14 9.5C14 8.67157 14.6716 8 15.5 8C16.3284 8 17 8.67157 17 9.5Z" fill="black"/>
<path d="M17 9.5C17 10.3284 16.3284 11 15.5 11C14.6716 11 14 10.3284 14 9.5C14 8.67157 14.6716 8 15.5 8C16.3284 8 17 8.67157 17 9.5Z" fill="black"/>
<path d="M17 9.5C17 10.3284 16.3284 11 15.5 11C14.6716 11 14 10.3284 14 9.5C14 8.67157 14.6716 8 15.5 8C16.3284 8 17 8.67157 17 9.5Z" fill="black"/>
</g>
<g id="Ellipse 65">
<path d="M10 9.5C10 10.3284 9.32843 11 8.5 11C7.67157 11 7 10.3284 7 9.5C7 8.67157 7.67157 8 8.5 8C9.32843 8 10 8.67157 10 9.5Z" fill="black"/>
<path d="M10 9.5C10 10.3284 9.32843 11 8.5 11C7.67157 11 7 10.3284 7 9.5C7 8.67157 7.67157 8 8.5 8C9.32843 8 10 8.67157 10 9.5Z" fill="black"/>
<path d="M10 9.5C10 10.3284 9.32843 11 8.5 11C7.67157 11 7 10.3284 7 9.5C7 8.67157 7.67157 8 8.5 8C9.32843 8 10 8.67157 10 9.5Z" fill="black"/>
<path d="M10 9.5C10 10.3284 9.32843 11 8.5 11C7.67157 11 7 10.3284 7 9.5C7 8.67157 7.67157 8 8.5 8C9.32843 8 10 8.67157 10 9.5Z" fill="black"/>
</g>
<path id="Line 83 (Stroke)" fill-rule="evenodd" clip-rule="evenodd" d="M7.60141 13.5515C7.84908 13.3313 8.22833 13.3536 8.44848 13.6013L8.00003 13.9999C8.44848 13.6013 8.4483 13.6011 8.44813 13.6009L8.44788 13.6006L8.44765 13.6004C8.44768 13.6004 8.44788 13.6006 8.44823 13.601L8.45362 13.6069C8.45907 13.6129 8.4682 13.6227 8.48089 13.6361C8.50628 13.6628 8.54584 13.7035 8.59858 13.7549C8.70424 13.8579 8.86177 14.003 9.06337 14.165C9.46951 14.4914 10.039 14.8737 10.7107 15.1256C11.3787 15.3761 12.1328 15.4925 12.9308 15.313C13.7255 15.1342 14.62 14.6493 15.5516 13.6013C15.7717 13.3536 16.151 13.3313 16.3987 13.5515C16.6463 13.7716 16.6686 14.1509 16.4485 14.3985C15.3801 15.6005 14.2746 16.2406 13.1942 16.4837C12.1172 16.726 11.1214 16.5612 10.2894 16.2492C9.46102 15.9386 8.78056 15.4772 8.3117 15.1004C8.07579 14.9109 7.88958 14.7396 7.76086 14.6141C7.69641 14.5512 7.64612 14.4996 7.61097 14.4626C7.59339 14.4441 7.57957 14.4293 7.56964 14.4184L7.55766 14.4053L7.55388 14.4011L7.55255 14.3996L7.55202 14.399C7.55179 14.3988 7.55159 14.3985 8.00003 13.9999L7.55159 14.3985C7.33143 14.1509 7.35374 13.7716 7.60141 13.5515ZM8.44764 13.6004L8.44765 13.6004L8.44764 13.6004Z" fill="black"/>
</g>
</g>
</svg>
