<svg width="24" height="24" viewBox="0 0 24 24" fill="none" xmlns="http://www.w3.org/2000/svg">
<path fill-rule="evenodd" clip-rule="evenodd" d="M15.8 10.5C15.8 13.9794 12.9794 16.8 9.5 16.8C6.02061 16.8 3.2 13.9794 3.2 10.5C3.2 7.02061 6.02061 4.2 9.5 4.2C12.9794 4.2 15.8 7.02061 15.8 10.5ZM14.8506 15.7556C13.4898 17.1408 11.5952 18 9.5 18C5.35786 18 2 14.6421 2 10.5C2 6.35786 5.35786 3 9.5 3C13.6421 3 17 6.35786 17 10.5C17 12.1137 16.4903 13.6085 15.6232 14.8319L21.4259 20.5777C21.6614 20.8109 21.6614 21.1889 21.4259 21.422C21.1905 21.6552 20.8087 21.6552 20.5732 21.422L14.8506 15.7556Z" fill="black"/>
</svg>
