<svg width="24" height="24" viewBox="0 0 24 24" fill="none" xmlns="http://www.w3.org/2000/svg">
<path d="M5.80976 5.98537C5.72195 5.98537 5.72195 5.98537 5.80976 5.98537C5.72195 6.07317 5.72195 6.07317 5.63415 6.07317C5.63415 6.07317 5.63415 6.07317 5.63415 6.16098V6.24878L3 13.8878C3 13.9756 3 14.0634 3 14.1512C3 15.2049 3.43902 15.9073 4.05366 16.3463C4.66829 16.7854 5.45854 17.0488 6.07317 17.0488C6.68781 17.0488 7.47805 16.8732 8.09268 16.3463C8.70732 15.9073 9.14634 15.2049 9.14634 14.1512C9.14634 14.0634 9.14634 13.9756 9.14634 13.8878L6.77561 7.12683L6.6878 6.95122L6.86341 6.86341L11.2537 5.72195H11.5171V5.98537V19.5951V19.7707H11.3415H7.30244C7.21463 19.7707 7.03902 19.8585 6.95122 19.9463C6.86341 20.0341 6.77561 20.2098 6.77561 20.3854C6.77561 20.561 6.86341 20.7366 6.95122 20.8244C7.03902 20.9122 7.12683 21 7.30244 21H16.522C16.6098 21 16.7854 20.9122 16.8732 20.8244C16.961 20.7366 17.0488 20.561 17.0488 20.3854C17.0488 20.2098 16.961 20.0341 16.8732 19.9463C16.7854 19.8585 16.6976 19.7707 16.522 19.7707H12.5707H12.3951V19.5951V5.54634V5.45854H12.4829L16.7854 4.31707L17.1366 4.22927L17.0488 4.58049L14.8537 10.9024C14.8537 10.9902 14.8537 11.078 14.8537 11.1659C14.8537 12.2195 15.2927 12.922 15.9073 13.361C16.522 13.8 17.3122 14.0634 17.9268 14.0634C18.5415 14.0634 19.3317 13.8878 19.9463 13.361C20.561 12.922 21 12.2195 21 11.1659C21 11.078 21 10.9902 21 10.9024L18.3659 3.26341V3.17561C18.3659 3.17561 18.3659 3.17561 18.3659 3.0878C18.3659 3.0878 18.3659 3.0878 18.278 3C18.278 3 18.278 3 18.1902 3C18.1902 3 18.1902 3 18.1024 3C18.1024 3 18.1024 3 18.0146 3C18.0146 3 18.0146 3 17.9268 3C17.9268 3 17.9268 3 17.839 3C17.839 3 17.839 3 17.7512 3L12.6585 4.31707L11.3415 4.66829L5.89756 5.89756C5.89756 5.89756 5.80976 5.89756 5.80976 5.98537ZM17.839 4.93171L18.0146 5.45854L19.9463 11.3415C19.8585 11.9561 19.5073 12.3951 19.0683 12.5707C18.6293 12.8341 18.1024 12.922 17.839 12.922C17.5756 12.922 17.0488 12.8341 16.6098 12.5707C16.1707 12.3073 15.8195 11.9561 15.7317 11.3415L17.6634 5.45854L17.839 4.93171ZM5.89756 8.53171L6.07317 8.00488L6.24878 8.53171L8.18049 14.4146C8.09268 15.0293 7.74146 15.4683 7.30244 15.6439C6.86341 15.9073 6.33659 15.9951 6.07317 15.9951C5.72195 15.9951 5.28293 15.9073 4.8439 15.6439C4.40488 15.3805 4.05366 15.0293 3.96585 14.4146L5.89756 8.53171Z" fill="black"/>
</svg>
