<svg width="45" height="12" viewBox="0 0 45 12" fill="none" xmlns="http://www.w3.org/2000/svg">
  <path
      d="M12.7181 0.526856V0.531858C12.7128 0.531858 11.0179 0.526856 10.5659 2.03252C10.1516 3.41313 8.98399 7.2248 8.95171 7.32985H8.62887C8.62887 7.32985 7.43437 3.43313 7.01469 2.02752C6.56272 0.521853 4.86244 0.526856 4.86244 0.526856H0.988403V11.9819H4.86244V5.1789H5.02386H5.18528L7.44514 11.9819H10.1354L12.3953 5.1839H12.7181V11.9819H16.5922V0.526856H12.7181Z"
      fill="#00B14E"></path>
  <path
      d="M26.8691 0.526855C26.8691 0.526855 25.7338 0.621897 25.2011 1.72738L22.457 7.32985H22.1341V0.526855H18.2601V11.9819H21.9189C21.9189 11.9819 23.108 11.8818 23.6407 10.7814L26.331 5.1789H26.6538V11.9819H30.5279V0.526855H26.8691Z"
      fill="#00B14E"></path>
  <path d="M32.2497 5.72925V11.982H36.1237V8.33039H40.3206C42.15 8.33039 43.6996 7.24492 44.2754 5.72925H32.2497Z"
        fill="#00B14E"></path>
  <path
      d="M40.3207 0.526855H31.7063C32.1368 2.70781 33.8962 4.45858 36.1722 5.02884C36.6888 5.15889 37.2322 5.22892 37.7918 5.22892H44.4315C44.4907 4.96881 44.5176 4.70369 44.5176 4.42857C44.5176 2.27262 42.6397 0.526855 40.3207 0.526855Z"
      fill="url(#paint0_linear)"></path>
  <defs>
    <linearGradient id="paint0_linear" x1="31.7063" y1="2.87789" x2="44.5176" y2="2.87789"
                    gradientUnits="userSpaceOnUse">
      <stop offset="0.3" stop-color="#02AFFF"></stop>
      <stop offset="1" stop-color="#1F5BD7"></stop>
    </linearGradient>
  </defs>
</svg>