<svg class="g-footer__contacts__phone__icon" viewBox="0 0 22 22" fill="none"
     xmlns="http://www.w3.org/2000/svg">
  <path
      d="M9.41878 12.5678L12.0861 15.2333C12.1694 15.3999 12.3362 15.4832 12.5029 15.5665C12.6696 15.6498 12.8363 15.6498 13.0863 15.6498C13.253 15.6498 13.5031 15.5665 13.6698 15.4832C13.8365 15.3999 14.0032 15.2333 14.0866 15.15C14.8368 14.4003 15.3369 13.9005 15.7536 13.4841C16.1704 13.0676 16.8372 13.0676 17.5874 13.9005C18.421 14.7335 20.1714 16.5661 20.6715 17.0659C21.1716 17.5656 21.1716 18.232 20.1714 19.1483C19.0878 20.0646 17.0873 21.8971 12.7529 20.4811C10.2523 19.4815 8.00178 17.8988 6.168 15.8997C4.16752 14.0671 2.5838 11.8181 1.58356 9.31916C0.0832016 4.98768 1.83362 2.98853 2.83386 1.90566C3.75075 0.822788 4.41758 0.822788 4.9177 1.32257C5.41782 1.82236 7.33495 3.65491 8.16848 4.40459C9.00202 5.23757 9.00202 5.82065 8.58525 6.23714C8.16848 6.65363 7.66836 7.15342 6.91818 7.9031C6.66812 7.9864 6.58477 8.15299 6.50141 8.31959C6.41806 8.48618 6.33471 8.65278 6.33471 8.90267C6.33471 9.06927 6.33471 9.31916 6.41806 9.48576C6.50141 9.65235 6.58477 9.81895 6.75147 9.90225L9.41878 12.5678Z"
      stroke="black" stroke-width="1.1" stroke-miterlimit="10"></path>
</svg>