<svg width="50" height="12" viewBox="0 0 50 12" fill="currentColor" xmlns="http://www.w3.org/2000/svg">
  <path
      d="M3.92388 3.58725C3.09019 3.58725 2.27933 3.73363 1.65977 4.0264C1.0576 4.30634 0 5.20172 0 6.90168V11.603H1.97716V7.34616C1.97716 7.12392 2.01085 6.45612 2.04237 6.28089C2.22172 5.41328 2.86411 5.20707 3.81084 5.20707C3.9054 5.20707 4.01736 5.21241 4.13257 5.21989L4.59126 3.6364C4.37039 3.60342 4.14729 3.58699 3.92388 3.58725V3.58725ZM11.5075 7.33227C11.5075 5.64301 10.6869 3.58725 8.12928 3.58725C5.62386 3.58725 4.30648 5.59493 4.30648 7.72761C4.30648 10.0847 5.80321 11.6308 8.34341 11.6308C9.27719 11.6389 10.2041 11.4728 11.0749 11.1414L10.7869 9.79939C10.1912 10.0227 9.53361 10.1499 8.61623 10.1499C7.3608 10.1499 6.25429 9.5451 6.20538 8.155H11.4423C11.476 7.97977 11.5075 7.69769 11.5075 7.33227V7.33227ZM6.20429 6.7959C6.28473 6.00522 6.80103 4.91323 8.02167 4.91323C9.33905 4.91323 9.66078 6.08322 9.64448 6.7959H6.20429V6.7959ZM42.4138 3.58725C41.5801 3.58725 40.7692 3.73363 40.1486 4.0264C39.5475 4.30741 38.4921 5.20279 38.4921 6.90274V11.603H40.4692V7.34616C40.4692 7.12392 40.5018 6.45612 40.5323 6.28089C40.7094 5.41328 41.3551 5.20707 42.3018 5.20707C42.3985 5.20707 42.5094 5.21241 42.6268 5.21989L43.0844 3.6364C42.8624 3.60343 42.6382 3.587 42.4138 3.58725V3.58725ZM49.9996 7.33227C49.9996 5.64301 49.1789 3.58725 46.6224 3.58725C44.117 3.58725 42.7964 5.59493 42.7964 7.72761C42.7964 10.0847 44.2942 11.6308 46.8333 11.6308C47.9572 11.6308 48.8909 11.4085 49.5659 11.1414L49.2757 9.79939C48.6822 10.0216 48.0224 10.1488 47.105 10.1488C45.8518 10.1488 44.7431 9.54403 44.6963 8.15393H49.9343C49.9816 7.88259 50.0034 7.60754 49.9996 7.33227V7.33227ZM44.6963 6.7959C44.7746 6.00522 45.2887 4.91323 46.5115 4.91323C47.8289 4.91323 48.1496 6.08322 48.1344 6.7959H44.6963V6.7959ZM21.415 5.26476C19.9694 4.70916 19.3411 4.33198 19.3411 3.51032C19.3411 2.89274 19.8868 2.23028 21.1422 2.23028C22.1531 2.23028 22.9118 2.52732 23.2954 2.7314L23.7781 1.17035C23.2161 0.883997 22.3465 0.631836 21.1726 0.631836C18.8292 0.631836 17.3498 1.95782 17.3498 3.69837C17.3498 5.23164 18.4879 6.16336 20.2716 6.7959C21.6552 7.28633 22.2031 7.76073 22.2031 8.56423C22.2031 9.43397 21.4955 10.0216 20.2237 10.0216C19.306 10.0147 18.4049 9.77987 17.6042 9.33888L17.1727 10.9512C17.7651 11.3006 18.9553 11.6308 20.0966 11.6308C22.8955 11.6308 24.2117 10.1317 24.2117 8.42426C24.2107 6.88992 23.2954 5.95714 21.415 5.26476V5.26476ZM28.3215 10.0366C27.565 10.0366 27.3041 9.54403 27.3041 8.61231V5.21455L28.6769 5.21668L29.0997 3.76035H27.3041V1.57637L25.377 2.52305L25.378 8.83562C25.377 9.84854 25.5715 10.542 25.99 10.9833C26.3585 11.3786 26.9726 11.6308 27.6911 11.6308C28.3215 11.6308 28.8367 11.5367 29.1226 11.4235L29.091 9.9415C28.8414 10.0137 28.5815 10.0458 28.3215 10.0366V10.0366ZM33.641 3.58725C31.2769 3.58725 29.5878 5.13868 29.5889 7.66564C29.5878 10.1328 31.2921 11.6318 33.5117 11.6318C35.5019 11.6318 37.529 10.3689 37.529 7.54063C37.5301 5.19959 35.9714 3.58725 33.641 3.58725V3.58725ZM33.578 10.2246C32.3725 10.2246 31.6323 9.10274 31.6323 7.61969C31.6323 6.33645 32.1921 5.01154 33.5921 5.01154C34.941 5.01154 35.4888 6.38667 35.4888 7.5855C35.4877 9.13587 34.6997 10.2246 33.578 10.2246V10.2246ZM14.2597 6.29157H14.276C15.0151 6.29157 15.4977 5.77016 15.4977 5.05962C15.4825 4.33305 15.002 3.8095 14.276 3.8095C13.5705 3.8095 13.0553 4.33305 13.0553 5.05962C13.0564 5.77016 13.5553 6.29157 14.2597 6.29157V6.29157ZM14.276 8.98094C13.5705 8.98094 13.0553 9.50022 13.0553 10.2289C13.0553 10.9234 13.5542 11.463 14.2586 11.463H14.2749C15.014 11.463 15.4966 10.9234 15.4966 10.2289C15.4825 9.48633 15.002 8.98094 14.276 8.98094"
      fill="currentColor"></path>
</svg>