<svg width="65" height="12" viewBox="0 0 65 12" fill="currentColor" xmlns="http://www.w3.org/2000/svg">
  <path
      d="M53.6748 0.631836L53.8016 9.35814H53.7507L51.6165 0.631836H48.1683V11.6318H50.4519L50.323 2.60634H50.375L52.6673 11.6318H55.9769V0.631836H53.6748ZM9.94608 0.631836L8.22358 11.6318H10.7348L12.0055 1.65044L12.0564 1.64934L13.2947 11.6318H15.7907L14.079 0.631836H9.94608ZM23.9828 0.631836L22.8367 9.04134H22.7836L21.6396 0.631836H17.8501L17.6464 11.6318H19.9713L20.0287 1.74394H20.0796L21.632 11.6318H23.9893L25.5418 1.74394H25.5927L25.6512 11.6318H27.9738L27.7691 0.631836H23.9828ZM4.31383 8.33184C4.40483 8.58154 4.37667 8.89944 4.33225 9.09084C4.2575 9.43404 4.04625 9.78164 3.42767 9.78164C2.847 9.78164 2.49492 9.41094 2.49492 8.85104L2.49275 7.85664H0V8.64864C0 10.9388 1.63042 11.6318 3.37567 11.6318C5.057 11.6318 6.43825 10.9982 6.65925 9.28224C6.77192 8.39564 6.6885 7.81484 6.6495 7.59924C6.25842 5.44874 2.73325 4.80744 2.47108 3.60514C2.43374 3.42743 2.43006 3.24414 2.46025 3.06504C2.52633 2.73504 2.72783 2.37534 3.3085 2.37534C3.85233 2.37534 4.17192 2.74604 4.17192 3.30594V3.94284H6.49025V3.21904C6.49025 0.981636 4.67242 0.631836 3.35833 0.631836C1.70733 0.631836 0.3575 1.23684 0.1105 2.91214C0.0353297 3.37127 0.0423024 3.84041 0.131083 4.29704C0.534083 6.39584 3.83608 7.00304 4.31383 8.33184ZM34.5161 8.33184C34.6049 8.58374 34.5778 8.89944 34.5345 9.09084C34.4598 9.43404 34.2507 9.78274 33.6386 9.78274C33.0633 9.78274 32.7134 9.41094 32.7134 8.84994L32.7113 7.85664H30.2456L30.2445 8.64864C30.2445 10.9399 31.8598 11.6318 33.5888 11.6318C35.2517 11.6318 36.621 10.9971 36.8388 9.28114C36.9514 8.39674 36.868 7.81704 36.829 7.59814C36.4401 5.44654 32.9507 4.80524 32.6918 3.60404C32.6547 3.4267 32.6507 3.24388 32.6798 3.06504C32.7459 2.73504 32.9453 2.37644 33.5194 2.37644C34.06 2.37644 34.3742 2.74604 34.3742 3.30704V3.94284H36.6698V3.21904C36.6708 0.980536 34.8703 0.631836 33.5682 0.631836C31.9356 0.631836 30.5977 1.23574 30.3539 2.91104C30.279 3.37027 30.2867 3.83949 30.3767 4.29594C30.7732 6.39584 34.0427 7.00304 34.5161 8.33184ZM42.315 9.71564C42.9618 9.71564 43.16 9.20304 43.2055 8.94014C43.2261 8.82574 43.2283 8.66954 43.2283 8.53204V0.631836H45.5802V8.29004C45.5834 8.48584 45.565 8.88624 45.5563 8.99294C45.3927 10.9839 44.0234 11.6318 42.315 11.6318C40.6077 11.6318 39.2373 10.9839 39.0737 8.99294C39.0591 8.75893 39.0518 8.52451 39.052 8.29004V0.631836H41.4018V8.53204C41.3978 8.66848 41.4054 8.80501 41.4245 8.94014C41.4689 9.20304 41.6683 9.71564 42.315 9.71564V9.71564ZM61.6904 9.74204C62.3632 9.74204 62.5983 9.26134 62.6394 8.98084C62.6589 8.86424 62.6633 8.71684 62.6622 8.58264V7.05584H61.7099V5.52354H65V8.34174C64.9989 8.53974 64.9946 8.68494 64.9664 9.03364C64.8137 10.9476 63.3458 11.6318 61.7002 11.6318C60.0524 11.6318 58.5878 10.9476 58.4318 9.03364C58.4112 8.80358 58.4004 8.57273 58.3993 8.34174L58.4003 3.92084C58.4003 3.73384 58.4209 3.40384 58.4393 3.22894C58.6473 1.26434 60.0535 0.631836 61.7002 0.631836C63.3468 0.631836 64.7909 1.25664 64.961 3.22784C64.9913 3.56334 64.9816 3.91974 64.9838 3.91974V4.26844H62.6405V3.68104C62.6406 3.54706 62.6312 3.41325 62.6123 3.28064C62.5701 3.04854 62.3935 2.51944 61.6839 2.51944C61.0079 2.51944 60.8097 3.02214 60.7588 3.28064C60.7323 3.44534 60.72 3.61207 60.7219 3.77894V8.58264C60.7208 8.71684 60.7252 8.86424 60.7436 8.98084C60.7837 9.26244 61.0188 9.74204 61.6904 9.74204Z"
      fill="currentColor"></path>
</svg>