<svg width="98" height="12" viewBox="0 0 98 12" fill="currentColor" xmlns="http://www.w3.org/2000/svg">
  <path fill-rule="evenodd" clip-rule="evenodd"
        d="M4.10779 4.19858C4.10779 4.51867 4.42787 4.67871 4.74796 4.73206L4.90382 4.74719C7.07197 4.95702 9.87187 5.228 9.97605 8.09298C9.97605 10.8671 7.30866 11.6673 4.96135 11.6673C2.34731 11.6673 0 10.4403 0 7.77289H4.10779C4.10779 8.25302 4.53457 8.41306 5.0147 8.41306C5.44148 8.41306 5.81492 8.30637 5.81492 7.93293C5.81492 7.61284 5.54818 7.4528 4.80131 7.34611C2.454 7.13271 0 6.70593 0 3.93184C0 1.79793 2.34731 0.517578 4.908 0.517578C7.5754 0.517578 9.65597 1.69123 9.65597 4.09189H5.70822C5.70822 3.7718 5.28144 3.61175 4.908 3.61175C4.58792 3.61175 4.10779 3.7718 4.10779 4.19858ZM12.4301 4.14497H10.1895V0.837402H18.7251V4.14497H16.4845V11.2936H12.4301V4.14497ZM23.2604 3.98493H23.8472C24.5407 3.98493 24.8075 4.25167 24.8075 4.7318C24.8075 5.26528 24.4874 5.42532 23.8472 5.42532H23.2604V3.98493ZM23.3137 8.57284H23.5805L24.9142 11.3469H29.0219V11.0268L27.3148 7.77263C28.2217 7.1858 28.8619 6.22554 28.8619 4.7318C28.8619 1.58427 26.3545 0.89075 23.7405 0.837402H19.2593V11.2936H23.3137V8.57284ZM47.3193 4.14497V0.837402H55.855V4.14497H53.6144V11.2936H49.5599V4.14497H47.3193ZM64.9777 8.4128H63.9641V7.0791H64.9777C65.5112 7.0791 65.7246 7.39919 65.7246 7.77263C65.7246 8.09271 65.5112 8.4128 64.9777 8.4128ZM63.9641 3.66484H64.7643C65.5112 3.66484 65.5112 4.78515 64.7643 4.78515H63.9641V3.66484ZM67.9652 5.58536C68.7654 5.31862 69.2455 4.51841 69.2989 3.71819C69.3522 2.1711 68.0719 0.837402 66.5248 0.837402H59.9097V11.2936H66.4715C68.2853 11.2936 69.7257 10.0132 69.8324 8.25276C69.8324 6.86571 69.1922 6.06549 67.9652 5.58536ZM33.6091 8.09271H37.9303V11.2936H29.5547V0.837402H37.9303V4.14497H33.6091V4.6251V5.10523H37.9303V7.0791H33.6091V7.55923V8.09271ZM46.7858 8.09271H42.5179V7.55923V7.0791H46.7858V5.10523H42.5179V4.6251V4.14497H46.7858V0.837402H38.4102V11.2936H46.7858V8.09271ZM91.705 4.09162H89.4644V0.837402H98V4.09162H95.7594V11.2936H91.705V4.09162ZM84.6099 7.39919L85.1968 4.78515L85.7836 7.39919H84.6099ZM87.384 0.837402H83.0095L79.1685 10.9201V11.2936H83.1162L83.543 10.0666H86.6905L87.1173 11.2936H91.065V10.9201L87.384 0.837402ZM78.6881 7.98602V11.2936H70.3125V0.837402H78.6881V4.09162H74.4203V4.6251V5.10523H78.6881V7.02576H74.4203V7.50589V7.98602H78.6881Z"
        fill="currentColor"></path>
</svg>