<svg width="43" height="13" viewBox="0 0 43 13" fill="currentColor" xmlns="http://www.w3.org/2000/svg">
  <path fill-rule="evenodd" clip-rule="evenodd"
        d="M26.1805 4.30174C27.7406 1.30969 30.6472 -0.271818 32.6775 0.775399C34.4941 1.73713 34.9856 4.49409 33.9171 7.25105C33.6392 7.35791 33.3828 7.37928 33.1263 7.40065C34.2163 5.43445 33.6179 2.12182 31.3097 2.16457C28.4673 2.20731 26.8857 3.93842 26.3087 5.81914C25.8599 7.31517 25.7744 10.4996 28.8519 10.2217C29.6427 10.1362 30.3266 9.98664 30.9677 9.64469C30.8823 9.83704 30.8181 10.0508 30.7968 10.3072C30.7754 10.5851 30.8181 10.8629 30.8823 11.1407C29.5786 11.9956 28.168 12.2307 27.0353 11.6323C25.005 10.5851 24.6203 7.2938 26.1805 4.30174ZM8.12128 0.647139V0.9036H8.16402C8.6342 0.967716 8.99752 1.09595 9.23261 1.26692C9.4677 1.4379 9.63868 1.65161 9.72416 1.92945C9.76691 2.01493 9.78828 2.14316 9.80965 2.31414C9.83102 2.48511 9.8524 2.65609 9.8524 2.84843C9.8524 2.94207 9.85746 3.03571 9.86266 3.13182L9.86266 3.13185C9.86814 3.23315 9.87377 3.33718 9.87377 3.44684V4.06663V6.60987C9.87377 6.93275 9.85471 7.25563 9.8346 7.59651L9.83459 7.59654L9.83102 7.65709C9.80965 7.99903 9.74554 8.36236 9.68142 8.68293C9.61731 9.02488 9.48908 9.32409 9.33947 9.62329C9.18987 9.9225 8.97615 10.179 8.71969 10.3927C8.46323 10.6064 8.14265 10.7987 7.75796 10.927C7.37327 11.0552 6.88172 11.1193 6.32605 11.1193C5.8345 11.1193 5.38569 11.0338 5.02237 10.8842C4.63768 10.7133 4.3171 10.4995 4.06064 10.2003C3.80418 9.90112 3.59046 9.5378 3.44086 9.11037C3.29126 8.68293 3.20577 8.19138 3.20577 7.67846V6.99456V6.33204V3.33998V2.76295C3.20577 2.67368 3.21037 2.57521 3.21531 2.46968V2.46967V2.46967V2.46967V2.46966V2.46966C3.221 2.34779 3.22714 2.21649 3.22714 2.07905C3.22714 1.86533 3.29126 1.67298 3.37674 1.54475C3.46223 1.39515 3.56909 1.28829 3.69732 1.20281C3.82555 1.11732 3.95378 1.0532 4.10338 1.03183C4.25299 0.989088 4.40259 0.967716 4.55219 0.946344H4.59493V0.647139H0V0.9036H0.0641154C0.320577 0.924972 0.555667 0.989088 0.748013 1.0532C0.940359 1.11732 1.11133 1.24555 1.23956 1.39515C1.2493 1.41949 1.25904 1.44273 1.26852 1.46536L1.26852 1.46536L1.26854 1.4654L1.26854 1.46541L1.26855 1.46542C1.30069 1.5421 1.32992 1.61186 1.34642 1.69436C1.38917 1.82259 1.41054 1.95082 1.41054 2.10042C1.43191 2.25002 1.43191 2.421 1.43191 2.59197V5.15659V6.65261V7.74257C1.43191 7.8708 1.43191 8.04178 1.45328 8.29824C1.47465 8.5547 1.5174 8.83253 1.60288 9.13174C1.68837 9.43094 1.8166 9.73015 2.00895 10.0507C2.17992 10.3713 2.43638 10.6491 2.75696 10.9056C3.07754 11.1621 3.50497 11.3758 3.99653 11.5254C4.48808 11.675 5.10786 11.7605 5.8345 11.7605C6.56114 11.7605 7.20229 11.675 7.69384 11.5254C8.20677 11.3758 8.61283 11.1621 8.95478 10.8842C9.27536 10.6064 9.53182 10.3072 9.70279 9.98661C9.87377 9.66603 10.002 9.32409 10.0875 9.00351C10.173 8.68293 10.2157 8.36235 10.2371 8.06315V7.93492C10.2585 7.69983 10.2585 7.50748 10.2585 7.35788L10.2647 7.16539V7.16537V7.16536V7.16534V7.16533V7.16531C10.2838 6.57891 10.3012 6.04469 10.3012 5.56265C10.3114 5.30762 10.3167 5.0672 10.3218 4.83674V4.8367C10.3274 4.58435 10.3328 4.34394 10.3439 4.10937V4.10934C10.3439 3.87426 10.3439 3.63918 10.3653 3.4041C10.3653 3.16901 10.3867 2.95529 10.4081 2.74157C10.4294 2.52786 10.4508 2.35688 10.4722 2.18591C10.4935 2.03631 10.5149 1.92945 10.5577 1.84396C10.6645 1.56613 10.8355 1.35241 11.0278 1.22418C11.2416 1.09595 11.5194 0.989088 11.8827 0.946344H11.9468V0.647139H8.12128ZM21.0513 0.668495V0.924957H21.094C21.5642 0.989072 21.9275 1.1173 22.184 1.28828C22.4191 1.45925 22.6114 1.67297 22.6969 1.9508C22.7824 2.16452 22.8252 2.44235 22.8252 2.80567C22.8252 2.99795 22.8305 3.19023 22.8358 3.38251L22.8359 3.38271C22.8412 3.57506 22.8465 3.76741 22.8465 3.95975V8.93938L15.7938 0.689867L15.7725 0.668495H12.6094V0.946328H12.6736L12.7035 0.950578C12.8458 0.970712 13.0054 0.993309 13.1651 1.05319C13.3361 1.09593 13.4857 1.16005 13.6353 1.26691C13.7849 1.37376 13.9131 1.50199 14.02 1.69434C14.1268 1.86532 14.191 2.10041 14.2337 2.37824C14.2337 2.5404 14.24 2.68372 14.2457 2.81502C14.2506 2.92598 14.2551 3.02836 14.2551 3.12625V4.94285V4.94294C14.2551 5.60544 14.2551 6.24656 14.2337 6.84494C14.2337 7.44335 14.2123 7.95628 14.191 8.38371C14.1696 8.96075 14.1482 9.4523 14.1055 9.85837C14.0627 10.2644 13.9772 10.5636 13.849 10.7774C13.7208 10.9911 13.5284 11.1407 13.2933 11.2262C13.0583 11.3116 12.8232 11.3758 12.5881 11.4185H12.524V11.6963H16.3709V11.4185H16.3068C15.9007 11.3758 15.5801 11.2903 15.345 11.1834C15.1313 11.0766 14.9603 10.9056 14.8535 10.6919C14.7466 10.4995 14.7039 10.2003 14.6611 9.79425C14.6398 9.38819 14.6184 8.91801 14.6184 8.40508V2.16452C15.2596 2.89116 15.8793 3.59643 16.4564 4.28033C17.0548 4.9856 17.6959 5.73361 18.3371 6.48162C18.517 6.69158 18.7004 6.9049 18.8866 7.12159L18.8871 7.12212L18.8877 7.12288L18.8879 7.12307L18.8883 7.12359L18.8884 7.12363C19.3651 7.67832 19.8607 8.25508 20.3674 8.85389C21.0727 9.66602 21.8634 10.585 22.7183 11.5895C22.8252 11.6963 22.932 11.7605 23.0389 11.7605C23.103 11.7605 23.1671 11.7391 23.1885 11.6963C23.2312 11.6536 23.2526 11.6109 23.2526 11.5467V10.5636V9.47367V8.38371V7.42198C23.2526 6.73808 23.2526 6.1183 23.274 5.51989L23.2833 5.26343L23.2833 5.26333C23.3011 4.77357 23.3167 4.34617 23.3167 3.98112C23.3381 3.51094 23.3595 3.06214 23.3808 2.67744C23.4022 2.27138 23.4449 1.99355 23.5091 1.86532C23.6159 1.58748 23.7869 1.37376 24.0006 1.24553C24.2143 1.1173 24.5135 1.01044 24.8769 0.9677H24.941V0.668495H21.0513ZM33.5752 10.9054V11.0123C33.5752 11.0337 33.5966 11.0551 33.6179 11.0764C33.6393 11.0978 33.6607 11.1192 33.7034 11.1192C33.7462 11.1405 33.7889 11.1405 33.8317 11.1405C33.8744 11.1405 33.8958 11.1619 33.8958 11.2047V11.2688H33.7248C33.6607 11.2688 33.5966 11.2688 33.5325 11.2901C33.4966 11.2991 33.4646 11.3043 33.4363 11.3089C33.397 11.3153 33.365 11.3205 33.3401 11.3329C33.276 11.3543 33.2332 11.3543 33.2119 11.3543C33.1691 11.3543 33.1478 11.3329 33.1478 11.2688V10.8841C33.105 10.9482 33.0623 11.0123 32.9982 11.0764C32.9554 11.1405 32.8913 11.1833 32.8272 11.226C32.7631 11.2688 32.699 11.3115 32.6135 11.3329C32.528 11.3543 32.4425 11.3756 32.3143 11.3756C32.2074 11.3756 32.1005 11.3543 31.9937 11.3115C31.8868 11.2688 31.8013 11.1833 31.7159 11.0978C31.6304 11.0123 31.5663 10.8841 31.5235 10.7558C31.4808 10.6276 31.4594 10.478 31.4594 10.307C31.4594 10.1147 31.5021 9.96509 31.5663 9.81549C31.6304 9.66588 31.7159 9.53765 31.8227 9.45217C31.9296 9.34531 32.0364 9.28119 32.1647 9.21708L32.2195 9.1985C32.3241 9.16277 32.4153 9.13159 32.5066 9.13159C32.6348 9.13159 32.7417 9.15296 32.8486 9.17433C32.9311 9.19083 33.0008 9.22007 33.0775 9.25221L33.1051 9.26373C33.1166 9.26852 33.1283 9.27334 33.1402 9.27816C33.1427 9.27917 33.1452 9.28018 33.1478 9.28119V8.31946C33.1478 8.2126 33.1264 8.14849 33.105 8.10574C33.0623 8.063 32.9982 8.04163 32.8699 8.02026C32.8272 8.02026 32.8058 7.99889 32.8058 7.95614V7.89203H32.9982C33.0836 7.89203 33.1478 7.89203 33.1905 7.87065C33.276 7.87065 33.3401 7.84928 33.4042 7.82791C33.4683 7.80654 33.5111 7.80654 33.5325 7.80654C33.5752 7.80654 33.5966 7.82791 33.5966 7.89203C33.5966 7.95614 33.5966 8.02026 33.5752 8.08437C33.5752 8.11234 33.5711 8.14844 33.5666 8.18912L33.5665 8.18921C33.5606 8.24177 33.5538 8.30199 33.5538 8.36221L33.5752 10.9054ZM33.1691 9.62314C33.0836 9.53765 32.9982 9.47354 32.8913 9.40942C32.7844 9.36668 32.6776 9.32394 32.5494 9.32394C32.357 9.32394 32.2074 9.40942 32.1005 9.55903C31.9937 9.73 31.9509 9.92235 31.9509 10.1788C31.9509 10.307 31.9723 10.4353 31.9937 10.5421C32.0151 10.649 32.0578 10.7558 32.1219 10.8413C32.186 10.9268 32.2501 10.9909 32.3143 11.0551C32.3997 11.0978 32.4852 11.1405 32.5707 11.1405C32.6348 11.1405 32.699 11.1192 32.7631 11.0764C32.8272 11.0337 32.8913 10.9909 32.9554 10.9268C33.0195 10.8627 33.0623 10.7986 33.0836 10.7131C33.1264 10.6276 33.1478 10.5635 33.1478 10.478L33.1691 9.62314ZM35.9261 10.8417C35.8833 10.8417 35.862 10.8631 35.8406 10.8845C35.7765 10.9486 35.691 11.0127 35.5628 11.0768C35.4773 11.1196 35.3704 11.1409 35.2635 11.1409C35.1353 11.1409 35.0285 11.1196 34.943 11.0768C34.8575 11.0341 34.772 10.97 34.7079 10.8845C34.6438 10.8204 34.601 10.7135 34.5583 10.6066C34.5369 10.4998 34.5155 10.3715 34.5155 10.2433L35.9688 10.1792C35.9795 10.1792 35.9848 10.1792 35.9875 10.1765C35.9902 10.1739 35.9902 10.1685 35.9902 10.1578C35.9902 9.87999 35.9261 9.62353 35.7765 9.45256C35.6269 9.26021 35.4132 9.17472 35.0926 9.17472C34.9857 9.17472 34.8575 9.19609 34.7293 9.26021C34.601 9.32433 34.4942 9.38844 34.3873 9.4953C34.2804 9.60216 34.195 9.70902 34.1308 9.85862C34.0667 10.0082 34.024 10.1578 34.024 10.3288C34.024 10.4998 34.0454 10.6707 34.1095 10.799C34.1522 10.9486 34.2377 11.0554 34.3232 11.1409C34.4087 11.2264 34.5155 11.2905 34.6438 11.3333C34.772 11.376 34.9002 11.3974 35.0285 11.3974C35.1567 11.3974 35.2635 11.376 35.3704 11.3546C35.4773 11.3333 35.5628 11.2905 35.6482 11.2478C35.7337 11.205 35.7978 11.1623 35.862 11.0982C35.9261 11.0554 35.9688 10.9913 36.0116 10.9272C35.9902 10.8631 35.9688 10.8417 35.9261 10.8417ZM34.6651 9.53804C34.7506 9.40981 34.8789 9.3457 35.0498 9.3457C35.1139 9.3457 35.1994 9.36707 35.2849 9.40981C35.349 9.45256 35.3918 9.4953 35.4345 9.55941C35.4773 9.62353 35.4986 9.68765 35.52 9.75176C35.5414 9.81588 35.5414 9.87999 35.5414 9.94411C35.5414 9.98685 35.4986 10.0082 35.4559 10.0082L34.5155 10.051C34.5155 9.83725 34.5797 9.66627 34.6651 9.53804ZM37.2939 10.0505C37.6359 10.0505 37.871 10.136 38.0419 10.307C38.1915 10.478 38.277 10.6917 38.277 10.9482C38.277 11.0978 38.2557 11.2474 38.1915 11.4183C38.1274 11.5893 38.0419 11.7603 37.8923 11.9313C37.7427 12.1236 37.5504 12.2946 37.2939 12.4442C37.116 12.5628 37.0478 12.59 36.8693 12.6611L36.8237 12.6793L36.8237 12.6793C36.7596 12.7006 36.6955 12.722 36.61 12.7648C36.5673 12.7861 36.5459 12.8075 36.5459 12.8502C36.5459 12.893 36.5673 12.9357 36.61 12.9998C37.5504 12.7434 37.9137 12.6152 38.3839 12.2305C38.8541 11.8244 39.0891 11.3756 39.0891 10.8627C39.0891 10.478 38.9609 10.1788 38.7258 9.96505C38.4907 9.72996 38.1702 9.6231 37.7641 9.6231H37.7427C37.6145 9.6231 37.4649 9.6231 37.3367 9.64447C37.2377 9.66097 37.1387 9.69021 37.0299 9.72234L37.0298 9.72235C36.9977 9.73184 36.9647 9.74159 36.9306 9.75133H36.9092V9.72996L37.0588 8.46903C37.0588 8.46903 37.0588 8.44765 37.0802 8.44765H38.7472C38.8327 8.44765 38.8754 8.42628 38.9182 8.36217C38.9396 8.29805 38.9609 8.23394 38.9609 8.14845V7.84924H36.7383L36.5245 10.1147C36.5245 10.1253 36.5245 10.1307 36.5272 10.1334C36.5299 10.136 36.5352 10.136 36.5459 10.136C36.8451 10.0719 37.1016 10.0505 37.2939 10.0505ZM40.393 7.99885C40.5854 7.89199 40.8205 7.84924 41.0556 7.84924C41.2906 7.84924 41.5257 7.91336 41.7608 8.04159C41.9745 8.12708 42.1455 8.25531 42.2951 8.40491C42.4661 8.55451 42.573 8.74686 42.6584 8.96058C42.7439 9.17429 42.7867 9.43076 42.7867 9.68722C42.7867 9.92231 42.7439 10.1574 42.6584 10.3711C42.573 10.5848 42.4661 10.7772 42.3165 10.9268C42.1669 11.0978 41.9959 11.226 41.7822 11.3115C41.5685 11.397 41.3334 11.4397 41.0769 11.4397C40.8205 11.4397 40.5854 11.397 40.3717 11.3115C40.1579 11.226 39.987 11.0978 39.8374 10.9482C39.6878 10.7985 39.5809 10.6062 39.4954 10.3925C39.4099 10.1788 39.3672 9.92231 39.3672 9.66584C39.3672 9.40938 39.4099 9.17429 39.4954 8.96058C39.5809 8.72549 39.7091 8.53314 39.8587 8.38354C40.0083 8.21256 40.1793 8.08433 40.393 7.99885ZM40.6922 11.0123C40.7991 11.0764 40.9487 11.0978 41.0769 11.0978C41.2052 11.0978 41.3334 11.0764 41.483 10.9909C41.5899 10.9482 41.6967 10.8627 41.7822 10.7344C41.8677 10.6276 41.9532 10.4566 41.9959 10.2856C42.06 10.1147 42.0814 9.90094 42.0814 9.64447C42.0814 9.38801 42.0387 9.17429 41.9959 8.98195C41.9318 8.7896 41.8677 8.64 41.7822 8.51177C41.6753 8.38354 41.5899 8.29805 41.4616 8.23394C41.3334 8.16982 41.2052 8.14845 41.0769 8.14845C40.9487 8.14845 40.8205 8.16982 40.6922 8.23394C40.564 8.29805 40.4571 8.38354 40.3717 8.51177C40.2862 8.64 40.2007 8.7896 40.1579 8.98195C40.0938 9.17429 40.0725 9.38801 40.0725 9.64447C40.0725 9.90094 40.1152 10.1147 40.1579 10.2856C40.2007 10.4566 40.2862 10.6062 40.3717 10.7344C40.4571 10.8627 40.564 10.9482 40.6922 11.0123Z"
        fill="currentColor"></path>
</svg>