<svg width="41" height="12" viewBox="0 0 41 12" fill="none" xmlns="http://www.w3.org/2000/svg">
  <path fill-rule="evenodd" clip-rule="evenodd" d="M14.2675 11.8118L16.3188 0.718018H19.5918L17.5404 11.8118H14.2675Z"
        fill="#0058A0"></path>
  <path fill-rule="evenodd" clip-rule="evenodd"
        d="M29.4339 0.994408C28.7885 0.760632 27.7744 0.526855 26.5067 0.526855C23.2567 0.526855 20.9748 2.03578 20.9748 4.18227C20.9518 5.7762 22.6113 6.6688 23.856 7.20011C25.1237 7.75267 25.5616 8.09271 25.5616 8.58151C25.5616 9.32535 24.5475 9.66538 23.6025 9.66538C22.2886 9.66538 21.5972 9.49536 20.5139 9.09157L20.0529 8.9003L19.5919 11.3868C20.3525 11.7056 21.7816 11.9606 23.2337 11.9819C26.691 11.9819 28.9268 10.4942 28.9499 8.19897C28.9729 6.94508 28.097 5.96747 26.207 5.18113C25.0546 4.67107 24.3631 4.33103 24.3631 3.79972C24.3631 3.33217 24.9624 2.84337 26.2301 2.84337C27.3134 2.82211 28.074 3.03464 28.6733 3.26841L28.9729 3.39593L29.4339 0.994408Z"
        fill="#0058A0"></path>
  <path fill-rule="evenodd" clip-rule="evenodd"
        d="M37.8469 0.739258H35.3115C34.5278 0.739258 33.9285 0.930529 33.5828 1.65311L28.7194 11.8118H32.1537C32.1537 11.8118 32.7069 10.4516 32.8452 10.1541C33.214 10.1541 36.5561 10.1541 37.0402 10.1541C37.1324 10.5366 37.432 11.8118 37.432 11.8118H40.4745L37.8469 0.739258ZM33.8133 7.88006C34.0899 7.24249 35.1271 4.77721 35.1271 4.77721C35.104 4.79846 35.4037 4.13964 35.565 3.71459L35.7955 4.67095C35.7955 4.67095 36.4178 7.3275 36.5561 7.88006H33.8133Z"
        fill="#0058A0"></path>
  <path fill-rule="evenodd" clip-rule="evenodd"
        d="M11.5246 0.718018L8.29771 8.28387L7.95197 6.7537C7.37574 4.98975 5.50876 3.05578 3.43433 2.09942L6.36158 11.8118H9.84201L15.005 0.718018H11.5246Z"
        fill="#0058A0"></path>
  <path fill-rule="evenodd" clip-rule="evenodd"
        d="M5.32437 0.718018H0.0460984L0 0.951794C4.12581 1.86565 6.84562 4.09715 7.97503 6.7537L6.82257 1.65312C6.61513 0.951794 6.0389 0.73927 5.32437 0.718018Z"
        fill="#FAA61A"></path>
</svg>