<svg width="32" height="32" viewBox="0 0 32 32" fill="currentColor" xmlns="http://www.w3.org/2000/svg">
  <path fill-rule="evenodd" clip-rule="evenodd"
        d="M16 32C24.8363 32 32 24.8363 32 16C32 7.16373 24.8363 0 16 0C7.16373 0 0 7.16373 0 16C0 24.8363 7.16373 32 16 32Z"
        fill="currentColor"></path>
  <path fill-rule="evenodd" clip-rule="evenodd"
        d="M15.8165 21.7597H16.8362C16.8362 21.7597 17.1445 21.7256 17.3023 21.5592C17.4474 21.4056 17.4431 21.1176 17.4431 21.1176C17.4431 21.1176 17.4229 19.7683 18.0575 19.5688C18.6837 19.3725 19.489 20.8733 20.3402 21.4504C20.9845 21.8867 21.4741 21.7917 21.4741 21.7917L23.7535 21.7608C23.7535 21.7608 24.9461 21.6883 24.3797 20.7635C24.3338 20.6877 24.0501 20.0797 22.6858 18.8307C21.2565 17.5229 21.4474 17.7341 23.1701 15.4728C24.2175 14.0947 24.6367 13.2531 24.5066 12.8936C24.3818 12.5501 23.6106 12.6408 23.6106 12.6408L21.0442 12.6568C21.0442 12.6568 20.8543 12.6312 20.7125 12.7144C20.5749 12.7955 20.4863 12.9853 20.4863 12.9853C20.4863 12.9853 20.081 14.052 19.5381 14.9576C18.3957 16.8712 17.9381 16.9725 17.7514 16.8531C17.3173 16.5768 17.4261 15.7416 17.4261 15.1475C17.4261 13.2936 17.7119 12.5203 16.8703 12.3208C16.5909 12.2547 16.385 12.2109 15.6725 12.2035C14.7573 12.1939 13.9818 12.2067 13.5434 12.4189C13.2511 12.5587 13.0261 12.8744 13.1637 12.8915C13.3333 12.9139 13.7173 12.9928 13.921 13.2669C14.1845 13.62 14.1749 14.4115 14.1749 14.4115C14.1749 14.4115 14.3263 16.5939 13.8218 16.8659C13.4762 17.0515 13.0005 16.6717 11.9829 14.9363C11.4602 14.0477 11.0666 13.0643 11.0666 13.0643C11.0666 13.0643 10.9909 12.8808 10.8543 12.7827C10.6901 12.6643 10.4607 12.6259 10.4607 12.6259L8.02127 12.6419C8.02127 12.6419 7.65541 12.6525 7.52101 12.8083C7.40154 12.948 7.51034 13.2371 7.51034 13.2371C7.51034 13.2371 9.42074 17.6403 11.5818 19.86C13.5647 21.8931 15.8165 21.7597 15.8165 21.7597Z"
        fill="white"></path>
</svg>