<svg width="32" height="32" viewBox="0 0 32 32" fill="currentColor" xmlns="http://www.w3.org/2000/svg">
  <rect width="32" height="32" rx="32" fill="currentColor"></rect>
  <path fill-rule="evenodd" clip-rule="evenodd"
        d="M23.1525 9.01919C21.3487 7.21164 18.9498 6.21576 16.394 6.21466C11.1277 6.21466 6.84156 10.5043 6.83944 15.7768C6.8388 17.4621 7.27867 19.1072 8.11483 20.5575L6.75938 25.5128L11.8243 24.183C13.2198 24.9448 14.791 25.3464 16.3901 25.347H16.394C21.6598 25.347 25.9463 21.0568 25.9485 15.7842C25.9494 13.2292 24.9564 10.8267 23.1525 9.01919ZM16.394 23.732H16.3908C14.9659 23.7315 13.5682 23.3482 12.349 22.6241L12.059 22.4519L9.05339 23.241L9.85563 20.308L9.66681 20.0071C8.87193 18.7418 8.45201 17.2791 8.45265 15.7772C8.4544 11.395 12.0168 7.82974 16.3973 7.82974C18.5183 7.83047 20.5122 8.65825 22.0116 10.1607C23.5109 11.6631 24.336 13.66 24.3352 15.7838C24.3334 20.1664 20.771 23.732 16.394 23.732ZM20.75 17.7791C20.5112 17.6596 19.3376 17.0815 19.1187 17.0017C18.9 16.9222 18.7407 16.8822 18.5816 17.1214C18.4225 17.3607 17.9649 17.8988 17.8256 18.0583C17.6863 18.2177 17.5471 18.2378 17.3084 18.1181C17.0696 17.9985 16.3005 17.7462 15.3886 16.9321C14.6789 16.2985 14.1998 15.5161 14.0605 15.2768C13.9212 15.0376 14.0456 14.9083 14.1652 14.7892C14.2726 14.6821 14.4039 14.51 14.5234 14.3706C14.6428 14.2311 14.6825 14.1313 14.7621 13.9719C14.8417 13.8124 14.8019 13.6729 14.7421 13.5534C14.6825 13.4337 14.205 12.2575 14.0061 11.7791C13.8123 11.3133 13.6155 11.3763 13.469 11.3689C13.3299 11.362 13.1706 11.3605 13.0114 11.3605C12.8522 11.3605 12.5936 11.4203 12.3748 11.6595C12.156 11.8987 11.5393 12.4768 11.5393 13.6529C11.5393 14.829 12.3946 15.9651 12.514 16.1247C12.6334 16.2841 14.1975 18.6975 16.5922 19.7326C17.1617 19.9788 17.6065 20.1257 17.9532 20.236C18.5252 20.4178 19.0456 20.3921 19.4568 20.3306C19.9156 20.262 20.8693 19.7526 21.0682 19.1944C21.2671 18.6362 21.2671 18.1578 21.2075 18.0582C21.1478 17.9586 20.9887 17.8988 20.75 17.7791Z"
        fill="white"></path>
</svg>