<svg width="32" height="32" viewBox="0 0 32 32" fill="currentColor" xmlns="http://www.w3.org/2000/svg">
  <path
      d="M16 32C24.8363 32 32 24.8363 32 16C32 7.16373 24.8363 0 16 0C7.16373 0 0 7.16373 0 16C0 24.8363 7.16373 32 16 32Z"
      fill="currentColor"></path>
  <path
      d="M24.1754 11.4296C23.9791 10.7085 23.3999 10.141 22.6661 9.94798C21.3349 9.59811 15.9983 9.59811 15.9983 9.59811C15.9983 9.59811 10.6618 9.59811 9.3306 9.94798C8.59673 10.141 8.01753 10.7085 7.82126 11.4296C7.465 12.7373 7.465 15.4648 7.465 15.4648C7.465 15.4648 7.465 18.1912 7.82126 19.4989C8.01753 20.22 8.59673 20.7874 9.3306 20.9805C10.6618 21.3314 15.9983 21.3314 15.9983 21.3314C15.9983 21.3314 21.3349 21.3314 22.665 20.9816C23.3989 20.7885 23.9781 20.221 24.1743 19.5C24.5317 18.1922 24.5317 15.4648 24.5317 15.4648C24.5317 15.4648 24.5317 12.7373 24.1754 11.4296ZM14.2533 17.9405V12.988L18.7141 15.4648L14.2533 17.9405Z"
      fill="white"></path>
</svg>